Patient4_TMGait_0pt2_02_right_06_EMG.mot
version=1
nRows=13
nColumns=33
inDegrees=no
endheader
time	1LAddLong	2LGlutMax	3LGlutMed	4LIliopsoas	5LSemiMemb	6LBicFemLong	7LRecFem	8LVastMed	9LVastLat	10LGasMed	11LTibAnt	12lTibPost	13LPeroneusLong	14LSol	15LExtDigLong	16LFlexDigLong	17RAddLong	18RGlutMax	19RGlutMed	20RIliopsoas	21RSemiMemb	22RBicFemLong	23RRecFem	24RVastMed	25RVastLat	26RGasMed	27RTibAnt	28RTibPost	29RPeroneusLong	30RSol	31RExtDigLong	32RFlexDigLong
12.31	-0.014954	0.072937	0.016022	-0.005798	-0.004883	0.026093	0.01709	0.029602	0.14038	0.031433	0.005341	-0.008392	0.027008	-0.079651	0.060577	-0.007019	0.19989	-0.20584	-0.05188	0.10468	-0.006409	-0.11978	0.033722	-0.16007	-0.032654	-0.016022	0.55832	-0.004272	-0.16693	0.013123	-0.003357	-0.002594
12.311	-0.008698	0.030212	0.11688	0.011139	0.011597	-0.086975	-0.041962	0.024261	0.049286	0.028687	0.02182	-0.005493	0.01358	-0.037537	-0.11124	-0.010223	0.15381	-0.22598	0.011292	0.18875	-0.00412	-0.12314	0.035248	-0.12253	-0.019836	-0.010834	0.68832	-0.013123	-0.19516	-0.074158	0.00061	-0.003662
12.312	0.015106	0.10315	0.043335	0.047607	0.020294	-0.032349	-0.13016	-0.012512	-0.053253	0.037537	0.027161	-0.007782	0.021667	0.033722	-0.063171	0.004578	0.17853	-0.21194	-0.049286	0.22705	-0.005493	-0.11581	0.038147	-0.088043	-0.005493	-0.006561	0.87463	-0.006714	-0.12375	-0.13519	-0.002899	-0.002899
12.313	0.025482	0.074463	0.048981	0.034332	0.015259	-0.005493	-0.17792	-0.031738	-0.15945	0.024719	0.016632	-0.010834	-0.10712	-0.068359	0.48538	-0.007477	0.13763	-0.25879	-0.017242	0.21835	-0.008698	-0.081329	0.039063	-0.087585	-0.002289	-0.009766	0.91278	-0.004425	-0.094147	-0.13367	-0.001984	0
12.314	0.025635	0.096436	-0.000916	0.001221	0.009766	-0.089111	-0.089874	-0.046082	-0.026703	0.045776	-0.040283	-0.003815	-0.010071	-0.20721	-0.085144	-0.015106	0.034332	-0.21805	0.14725	0.24475	-0.014496	-0.081635	-0.034485	-0.06485	-0.001373	-0.001678	0.61371	-0.009155	0.002136	-0.12451	-0.002899	0.003052
12.315	0.014038	0.10208	-0.003204	-0.003967	0.013123	-0.089874	-0.093231	-0.024719	0.16266	0.036926	-0.083771	-0.002441	0.058289	-0.13702	0.070801	-0.003052	-0.020294	-0.22232	0.3981	0.14984	0.016022	-0.059509	-0.043488	-0.046844	0.017548	-0.003967	0.065918	-0.008545	-0.015411	-0.028687	-0.002747	0.006714
12.316	0.003967	0.13245	0.02655	-0.010223	0.00885	0.009308	-0.057678	0.010529	0.23499	0.040894	-0.055084	0.002136	-0.059967	-0.016937	-0.22797	-0.002441	-0.086975	-0.22003	0.44449	0.085297	0.00824	-0.030518	-0.088806	-0.008545	0.027618	0.00885	-0.063324	-0.007629	0.14557	0.009155	-0.002441	0.000458
12.317	-0.002136	0.14206	0.017548	-0.006714	-0.013275	0.041351	0.083618	0.016632	-0.007477	0.04364	-0.004578	0.003204	-0.12909	0.018005	-0.19486	-0.004425	-0.083313	-0.21179	0.014038	-0.073547	0.037231	-0.036469	-0.085754	0.022888	0.030823	0.000153	-0.39764	-0.00885	0.21286	0.018463	-0.000305	0.001831
12.318	-0.001678	0.18997	-0.0383	0.001678	-0.026245	0.070648	0.11353	0.010529	-0.3743	0.032349	0.00412	-0.000763	-0.043488	-0.011902	0.015869	-0.005035	-0.080414	-0.21744	-0.50064	-0.18585	0.08728	-0.012054	-0.18799	0.095673	0.037842	-0.005035	-0.41168	-0.009766	0.19898	-0.030823	-0.000916	-0.001831
12.319	-0.007019	0.19226	-0.14374	0.021515	-0.054016	0.075836	0.11627	-0.002899	-0.33234	0.015106	0.079803	0.004272	-0.005341	0.010834	-0.088196	-0.007019	-0.097809	-0.22263	-0.48675	-0.31372	0.076752	-0.000916	-0.17807	0.052338	0.045929	-0.004578	-0.34759	-0.010681	0.09491	-0.096893	-0.002899	0.002747
12.32	-0.013275	0.21332	-0.077057	0.027924	-0.037994	0.083923	0.063629	0.010986	-0.24475	0.012817	0.005341	0.001678	-0.048981	-0.026855	-0.19089	-0.009766	-0.1239	-0.1889	-0.56656	-0.39429	0.070343	-0.031586	-0.07019	0.033875	0.03479	0	-0.77331	-0.007477	0.043335	-0.16235	-0.001831	-0.000305
12.321	0.00061	0.24628	0.05127	0.020294	-0.052795	0.026245	0.090637	0.03067	-0.21118	0.020905	0.010071	-0.000916	0.014801	-0.033112	-0.12634	-0.006104	-0.15747	-0.14679	-0.36453	-0.35706	0.063019	-0.016785	-0.07019	-0.009308	0.026093	-0.000458	-0.81543	-0.012207	-0.088654	-0.12283	-0.007935	-0.004578
12.322	0.006866	0.22644	0.11719	-0.006409	0.007935	-0.046844	0.12833	0.03479	-0.12238	0.000458	0.018921	-0.002289	0.31647	0.08728	0.001831	-0.003967	-0.14496	-0.16205	-0.037231	-0.1857	0.058441	-0.014191	-0.039825	0.015869	0.029602	-0.006561	-0.63507	-0.00946	-0.13077	-0.012207	-0.003357	0.006409
